PathFileType	4	(X/Y/Z)	Patient4_TMGait_0pt7_02_left_35.trc.trc
DataRate	CameraRate	NumFrames	NumMarkers	Units	OrigDataRate	OrigDataStartFrame	OrigNumFrames
86.419753086420	86.419753086420	6	33	mm	86.419753086420	106	       141
Frame#	Time	Sacral			L.Shoulder			Chest			R.Shoulder			Neck			R.ASIS			L.ASIS			R.Thigh.Superior			R.Thigh.Lateral			R.Thigh.Inferior			R.Patella			L.Thigh.Superior			L.Thigh.Lateral			L.Thigh.Inferior			L.Patella			L.Shank.Superior			L.Shank.Lateral			L.Shank.Inferior			R.Shank.Superior			R.Shank.Lateral			R.Shank.Inferior			R.Heel			R.Midfoot.Superior			R.Midfoot.Lateral			R.Toe			L.Heel			L.Midfoot.Lateral			L.Midfoot.Superior			L.Toe			L.Elbow			L.Wrist			R.Elbow			R.Wrist			
		X1	Y1	Z1	X2	Y2	Z2	X3	Y3	Z3	X4	Y4	Z4	X5	Y5	Z5	X6	Y6	Z6	X7	Y7	Z7	X8	Y8	Z8	X9	Y9	Z9	X10	Y10	Z10	X11	Y11	Z11	X12	Y12	Z12	X13	Y13	Z13	X14	Y14	Z14	X15	Y15	Z15	X16	Y16	Z16	X17	Y17	Z17	X18	Y18	Z18	X19	Y19	Z19	X20	Y20	Z20	X21	Y21	Z21	X22	Y22	Z22	X23	Y23	Z23	X24	Y24	Z24	X25	Y25	Z25	X26	Y26	Z26	X27	Y27	Z27	X28	Y28	Z28	X29	Y29	Z29	X30	Y30	Z30	X31	Y31	Z31	X32	Y32	Z32	X33	Y33	Z33	

106	41.245000000000	769.714386039419	1022.006718562015	527.868314967310	982.563254413101	1419.772625208316	315.574962945588	1093.808708934003	1342.359183205887	469.176454849876	1038.136875160700	1434.573152356148	645.963607508458	1006.563042862607	1485.535518381427	467.117338412784	997.488171040766	937.879534664986	631.846258650725	966.833138839879	954.551457492091	359.681295525664	1028.750611447257	737.955358918154	604.808767213591	944.619295600510	634.688863807065	666.605273980866	1015.269084719400	579.931651908768	582.262139949831	1012.202929640985	492.954232285515	588.030629887181	1061.367621740122	804.624171455870	401.060204281840	1045.186799365227	677.449524488412	315.034090686699	1152.780441116609	629.641328442525	386.023219190805	1182.288206069151	543.150370835865	376.523874921186	1127.751669341300	467.110618223483	363.901353776429	997.739874364981	399.694959609978	311.624321227222	1011.465509495619	268.357957801080	361.448626737473	985.147766016104	405.298720569602	596.471058786319	915.360412684695	301.691069369299	659.722894658659	955.689584696939	206.919228439210	594.377563632131	821.030962554610	42.453829868125	565.822205346621	992.276580208843	96.928652787354	599.431299088894	905.005405220122	36.492785290127	639.048854707971	1113.270255632149	45.012129809709	625.776105888417	838.638026249796	168.080361642244	395.341003151560	903.373541701192	134.956531514679	314.368004109688	1005.108474717365	160.721609080651	336.328353218222	1101.457039247695	64.761729310609	305.922963619316	897.987475792866	1066.909984448468	238.910660287202	924.309763856186	807.030543135050	236.423973962344	1002.130999904214	1096.787247833518	790.415357999571	1177.850008613374	909.150578898748	749.498123781767	
107	41.256571428571	768.393536874509	1022.088241580604	528.290065546071	981.111149391882	1419.201290715549	315.271521259895	1092.685900182557	1341.977273779463	468.678066139349	1037.599763920145	1434.383483318518	645.617698063294	1005.402146096078	1485.327695497117	466.817815900223	996.338010385611	937.563108190109	631.617150714410	965.173272538900	954.448869683415	359.455026302337	1026.082665443193	737.155465758403	604.369080663635	941.653107464211	634.367899598858	666.527591652949	1011.685912865454	579.068608740428	582.038583191041	1007.873647470454	492.057961711159	587.819540551361	1060.219085817350	806.098563851519	400.972609781457	1045.331309949143	678.684885175066	314.909829609075	1153.411703960920	632.306160311163	385.814148411714	1184.457180244466	547.063012705382	376.452326257244	1133.049726328327	469.875375306992	363.892479519284	1006.763105498547	396.238352916367	311.228226431732	1026.817277894164	265.575796667229	361.351097186607	980.141233956190	404.631551348852	596.283488241254	909.616421336130	301.546398586325	659.637308358152	948.862372547761	206.455300861110	594.166391620811	812.927893973115	42.492832325576	565.840122337913	984.183363779208	96.794320775246	599.346731628504	896.894286127928	36.490345532435	639.057843276773	1105.180816357984	44.715428798314	625.831107240186	859.229233167620	156.346480901082	394.912801986404	925.830074063279	126.912474736994	314.043993642434	1025.997555376178	157.939599041883	336.309065648805	1127.415303819290	67.233465806776	306.032829728276	892.515262981262	1067.139064866086	239.578873649148	901.973936331845	806.037722942061	237.880858956712	1011.823098817402	1096.034084670968	790.129917770522	1200.375463839525	923.564055661968	743.863652405863	
108	41.268142857143	767.158650555013	1022.133585264168	528.434022510717	979.806827276366	1418.709250097577	314.887402477108	1091.628383048988	1341.600610500959	468.114822836770	1037.054050491605	1434.158728804351	645.202271995450	1004.341305032840	1485.115459420807	466.457787581712	995.206327508529	937.284560541417	631.309904063019	963.729824908471	954.275411272761	359.092311908654	1023.445232998684	736.328525072462	603.981599039613	938.542388428166	634.037680016474	666.361348160638	1008.052925142969	578.158534825139	581.832649074619	1003.464034223690	491.165715870936	587.577924482448	1058.955401695702	807.083070859462	400.717303493437	1044.996657694148	679.390834832471	314.742693547058	1153.467761537956	634.229190555101	385.507867715504	1185.859628378834	550.335492759850	376.458564695151	1137.645475365105	472.211232440325	364.025866594302	1015.723094330150	392.431661172929	310.520552454253	1041.867762666786	262.827934651546	361.232806425889	975.069329870750	403.978679130462	596.066182044659	903.800714774217	301.415130312672	659.506300659305	942.004433761259	206.014270039175	593.944542960387	804.828360510182	42.552975075459	565.858725905492	976.104571611977	96.669419585866	599.276398536340	888.785620452185	36.497260659228	639.065004884267	1097.087942148394	44.411936079371	625.891065485297	879.944680151454	144.901223500264	393.842669649085	948.566568439305	119.177914098435	313.468133018417	1046.716276085406	155.422303767677	336.453944626745	1153.013528111624	70.247101952851	306.978266043121	886.173261955909	1067.910940266188	239.701810547181	881.418616999861	806.766343987937	239.438936478309	1021.775549126631	1095.509259543144	789.447728625887	1221.867581309625	939.364634025678	737.728406990733	
109	41.279714285714	766.039282917695	1022.153217131676	528.297871772156	978.638231207866	1418.320933836264	314.429538180971	1090.637412592127	1341.250356398828	467.484889672625	1036.515832431661	1433.915218142530	644.716842351231	1003.382974402755	1484.918294392606	466.043206568612	994.106128045408	937.065296834009	630.934011499972	962.519245409937	954.043793594984	358.588177706949	1020.832501901878	735.487255806678	603.648715294844	935.260310917057	633.713193084954	666.109378275571	1004.335224161204	577.211415655717	581.649961702750	998.937082336127	490.289327282568	587.308090237729	1057.602389321831	807.600346590543	400.325534741324	1044.219802834476	679.576627219888	314.540409564463	1152.966782781889	635.386707600736	385.135631985505	1186.512161825975	552.930568104954	376.567609766573	1141.510632049891	474.090612724239	364.312261836622	1024.552153325117	388.340326929460	309.532831118224	1056.473690943896	260.156256088992	361.120850602486	969.889424791506	403.342957612507	595.814395179784	897.887636514617	301.306247110250	659.334840819861	935.101224915726	205.605580714180	593.716455333412	796.728782918107	42.635236405666	565.880169324945	968.037515332250	96.557701905829	599.221796948204	880.676981894636	36.516702354899	639.075513803531	1088.989657170931	44.112401438625	625.955276746807	900.590672670338	133.857886454825	392.197875529173	971.370327171148	111.861947233887	312.692733998938	1067.068987188268	153.228594096280	336.778766503348	1178.005762030783	73.830401379196	308.756741558162	879.038749078967	1069.257037712908	239.318124577868	862.759302675062	808.823083836432	241.092866469511	1031.949782945444	1095.248784361346	788.342187491149	1242.148415170608	956.403362851216	731.154659660473	
110	41.291285714286	765.064663009288	1022.149895447000	527.882602784138	977.585161356237	1418.052223736970	313.905595501516	1089.709614459253	1340.945046086693	466.787552617633	1035.993259190491	1433.668006657712	644.160221050844	1002.517255557888	1484.750704780389	465.580461995056	993.054376208226	936.917550577580	630.492458615601	961.561322819481	953.763198090636	357.934421932502	1018.230046375072	734.642546642621	603.358317279405	931.794564824068	633.408521423220	665.776798665517	1000.502208150658	576.238283180423	581.490280505004	994.262914089384	489.438177320985	587.015265400304	1056.194805467138	807.671015168063	399.820097214101	1043.046740524045	679.256902855491	314.300749609624	1151.931234791920	635.762078014125	384.724135110593	1186.435669418873	554.813968662718	376.785357613173	1144.617703972995	475.481896939893	364.734951897149	1033.136488395246	384.018818052988	308.319769500148	1070.476180005999	257.574347608251	361.037220659329	964.566853042313	402.726143806220	595.527385159901	891.856322825987	301.226522472427	659.130109276857	928.139798162381	205.236031771308	593.488081992540	788.626161866091	42.738975016348	565.904996140608	959.978468699588	96.461308806157	599.183422063837	872.565561895940	36.550624186484	639.094537707222	1080.884500278760	43.826758550910	626.022412152607	920.949080641323	123.290569553710	390.106554254009	993.974610908328	105.027416818750	311.795789826554	1086.833553188678	151.374123518963	337.282717735446	1202.120321035484	77.950176765459	311.287980310089	871.259076846205	1071.182056628706	238.485424531875	845.968769499395	811.846895447418	242.826598013833	1042.292854949525	1095.289195220745	786.798449333613	1261.062809534886	974.505491644524	724.213040864553	
111	41.302857142857	764.263838443725	1022.116264090904	527.191716706313	976.622848525881	1417.909525813120	313.322617314682	1088.837582169346	1340.699642012550	466.023303174634	1035.484410119108	1433.429750238441	643.530001489921	1001.722017127573	1484.620404185477	465.075392329919	992.073777029655	936.843380527124	629.979436230517	960.879449699599	953.436440351284	357.123150567169	1015.621411580270	733.802053894687	603.084515347035	928.149896431271	633.135498412786	665.369447515053	996.531109068211	575.249896108605	581.347218000803	989.421800846568	488.618308843897	586.706568539711	1054.775992317680	807.308271570642	399.216743155124	1041.533115187781	678.449913962588	314.012309037040	1150.388745628771	635.346204345126	384.295665272274	1185.654973462383	555.954207045259	377.098085420125	1146.941039126650	476.348783393492	365.250793260632	1041.316229339279	379.506922836138	306.957248118101	1083.699830853533	255.067771942152	360.998231926577	959.080008218130	402.130491275993	595.209625436058	885.692597949269	301.180051442766	658.900669365949	921.109998287413	204.909337186146	593.266119183605	780.518385726669	42.861939893704	565.932397839199	951.923252432486	96.380627852827	599.160563370636	864.448556758862	36.599363822713	639.126365844752	1072.771577113184	43.562874706007	626.090675925415	940.771972355630	113.241212311608	387.751863578374	1016.053716086514	98.691408824203	310.875727668902	1105.758674340133	149.828932571628	337.948588894655	1225.056998967599	82.505141293960	314.414834230248	863.029760579368	1073.663760276700	237.277990049904	830.905585186551	815.535118606081	244.609714411522	1052.740181304077	1095.665928978571	784.816231237430	1278.481207854765	993.477043062589	716.978372940451	
